<svg xmlns="http://www.w3.org/2000/svg" xmlns:xlink="http://www.w3.org/1999/xlink" version="1.1" x="0px" y="0px" viewBox="0 0 32 32" enable-background="new 0 0 32 32" xml:space="preserve"><g display="none"><path display="inline" d="M26,2H6C2.691,2,0,4.692,0,8v16C0,27.309,2.691,30,6,30h20c3.309,0,6-2.69,6-5.999V8   C32,4.692,29.309,2,26,2z M16,15.172L6.828,6h18.344L16,15.172z M11.172,16L4,23.173V8.828L11.172,16z M14,18.829l0.586,0.586   c0.391,0.391,0.902,0.586,1.414,0.586s1.024-0.195,1.414-0.586L18,18.829l7.172,7.172H6.828L14,18.829z M20.828,16L28,8.828v14.344   L20.828,16z"></path></g><g display="none"><path display="inline" d="M7.868,24c-1.656,0-3,1.343-3,3s1.344,3,3,3c1.656,0,3-1.343,3-3S9.525,24,7.868,24z M21.868,24   c-1.656,0-3,1.343-3,3s1.344,3,3,3c1.656,0,3-1.343,3-3S23.525,24,21.868,24z M27.868,2h-0.055v0.006   C25.077,2.035,22.868,4.257,22.868,7c0,0.347,0.065,0.674,0.133,1H4.868c-1.1,0-1.873,0.891-1.717,1.979l1.434,10.041   C4.742,21.109,5.769,22,6.868,22h16c1.1,0,2.127-0.891,2.283-1.979l1.434-10.041c0.144-1.011-0.525-1.819-1.5-1.935   C24.956,7.719,24.868,7.373,24.868,7c0-1.636,1.316-2.965,2.945-2.994v0.009h0.055V4c0.553,0,1-0.447,1-1S28.421,2,27.868,2z"></path></g><g><path fill-rule="evenodd" clip-rule="evenodd" d="M21,16c0-1.106-0.895-2-2-2h-1.674l1.553-10.199C18.949,3.545,19,3.279,19,3   c0-1.656-1.344-3-3-3c-1.656,0-3,1.344-3,3c0,0.281,0.051,0.549,0.125,0.809L14.691,14H13c-1.105,0-2,0.894-2,2v2h10V16z M21,20H11   L9,32h14L21,20z"></path></g></svg>