<svg class="sidebar-icon" xmlns="http://www.w3.org/2000/svg" xmlns:xlink="http://www.w3.org/1999/xlink" version="1.1" x="0px" y="0px" viewBox="0 0 100 100" enable-background="new 0 0 100 100" xml:space="preserve">
    <path
        d="M74.616,40.336l-0.087-0.079l11.41-12.629c2.842-3.148,3.712-9.007,0.574-11.841l-3.507-3.169  c-3.141-2.835-8.879-1.376-11.723,1.772L59.875,27.02l-0.086-0.078c-1.268-1.146-3.231-1.045-4.379,0.222  c-1.145,1.269-1.045,3.232,0.223,4.378l0.262,0.235l-30.599,33.87c-2.213,2.451-2.928,5.372-3.559,7.947  c-0.358,1.459-0.695,2.839-1.254,3.784c-0.389,0.66-0.829,1.304-1.25,1.922c-1.506,2.208-3.569,5.236-1.052,7.511l0.981,0.885  c2.4,2.169,4.855,0.088,6.481-1.288c0.787-0.666,1.599-1.354,2.464-1.828c0.829-0.453,1.88-0.812,2.991-1.191  c2.55-0.872,5.726-1.956,8.396-4.915l30.599-33.87l0.369,0.333c1.266,1.145,3.229,1.045,4.377-0.223  C75.983,43.445,75.884,41.482,74.616,40.336z M36.804,76.045c-2.041,2.26-4.5,3.1-6.878,3.913c-1.264,0.432-2.457,0.839-3.558,1.442  c-1.188,0.647-2.187,1.496-3.069,2.243c-0.551,0.466-1.357,1.149-1.761,1.318l-0.905-0.75c-0.026-0.49,0.99-1.979,1.596-2.869  c0.46-0.678,0.937-1.376,1.377-2.121c0.831-1.405,1.229-3.037,1.652-4.766c0.556-2.265,1.127-4.605,2.729-6.378l30.597-33.871  l8.817,7.966L36.804,76.045z"></path>
    <path
        d="M47.956,60.378c-0.081-0.18-0.259-0.295-0.456-0.295h-9.833c-0.14,0-0.273,0.059-0.368,0.161  c-0.896,0.973-8.764,9.531-9.398,10.631c-0.434,0.752-2.212,5.16-1.287,7.104c0.248,0.521,0.671,0.844,1.224,0.932  c0.097,0.017,0.202,0.024,0.313,0.024c1.927,0,5.821-2.576,6.877-3.67c1.119-1.16,12.369-13.812,12.847-14.35  C48.004,60.769,48.037,60.558,47.956,60.378z"></path>
</svg>
